<?xml version="1.0" encoding="UTF-8"?>
<svg width="478px" height="134px" viewBox="0 0 478 134" version="1.1" xmlns="http://www.w3.org/2000/svg" xmlns:xlink="http://www.w3.org/1999/xlink">
    <defs>
        <path d="M0.112,1.376 L21.488,1.376 L65.392,68.704 L65.648,68.704 L65.648,1.376 L81.776,1.376 L81.776,92 L61.296,92 L16.496,22.496 L16.24,22.496 L16.24,92 L0.112,92 L0.112,1.376 Z M138.992,83.552 L138.608,83.552 C136.389322,87.0506842 133.57335,89.5893254 130.16,91.168 C126.74665,92.7466746 122.99202,93.536 118.896,93.536 C116.079986,93.536 113.328013,93.1520038 110.64,92.384 C107.951987,91.6159962 105.562677,90.4640077 103.472,88.928 C101.381323,87.3919923 99.6960064,85.4720115 98.416,83.168 C97.1359936,80.8639885 96.496,78.1760154 96.496,75.104 C96.496,71.7759834 97.0933274,68.9386784 98.288,66.592 C99.4826726,64.2453216 101.082657,62.2826746 103.088,60.704 C105.093343,59.1253254 107.418653,57.8666714 110.064,56.928 C112.709347,55.9893286 115.461319,55.2853357 118.32,54.816 C121.178681,54.3466643 124.058652,54.0480006 126.96,53.92 C129.861348,53.7919994 132.591987,53.728 135.152,53.728 L138.992,53.728 L138.992,52.064 C138.992,48.2239808 137.669347,45.3440096 135.024,43.424 C132.378653,41.5039904 129.00802,40.544 124.912,40.544 C121.669317,40.544 118.640014,41.1199942 115.824,42.272 C113.007986,43.4240058 110.57601,44.9813235 108.528,46.944 L100.464,38.88 C103.87735,35.3813158 107.866644,32.8640077 112.432,31.328 C116.997356,29.7919923 121.711976,29.024 126.576,29.024 C130.928022,29.024 134.597318,29.5146618 137.584,30.496 C140.570682,31.4773382 143.045324,32.7359923 145.008,34.272 C146.970676,35.8080077 148.485328,37.5786566 149.552,39.584 C150.618672,41.5893434 151.386664,43.6159898 151.856,45.664 C152.325336,47.7120102 152.602666,49.6959904 152.688,51.616 C152.773334,53.5360096 152.816,55.2213261 152.816,56.672 L152.816,92 L138.992,92 L138.992,83.552 Z M138.096,64.48 L134.896,64.48 C132.762656,64.48 130.373347,64.5653325 127.728,64.736 C125.082653,64.9066675 122.586678,65.3119968 120.24,65.952 C117.893322,66.5920032 115.909341,67.5306605 114.288,68.768 C112.666659,70.0053395 111.856,71.7333222 111.856,73.952 C111.856,75.4026739 112.175997,76.6186618 112.816,77.6 C113.456003,78.5813382 114.287995,79.4133299 115.312,80.096 C116.336005,80.7786701 117.487994,81.2693318 118.768,81.568 C120.048006,81.8666682 121.327994,82.016 122.608,82.016 C127.898693,82.016 131.802654,80.7573459 134.32,78.24 C136.837346,75.7226541 138.096,72.2880218 138.096,67.936 L138.096,64.48 Z M169.584,30.56 L184.944,30.56 L184.944,92 L169.584,92 L169.584,30.56 Z M167.408,9.696 C167.408,7.22132096 168.325324,5.06667584 170.16,3.232 C171.994676,1.39732416 174.319986,0.48 177.136,0.48 C179.952014,0.48 182.31999,1.35465792 184.24,3.104 C186.16001,4.85334208 187.12,7.05065344 187.12,9.696 C187.12,12.3413466 186.16001,14.5386579 184.24,16.288 C182.31999,18.0373421 179.952014,18.912 177.136,18.912 C174.319986,18.912 171.994676,17.9946758 170.16,16.16 C168.325324,14.3253242 167.408,12.170679 167.408,9.696 Z M218.224,30.56 L218.224,95.712 C218.224,99.5520192 217.968003,103.11465 217.456,106.4 C216.943997,109.68535 215.941341,112.543988 214.448,114.976 C212.954659,117.408012 210.84268,119.30666 208.112,120.672 C205.38132,122.03734 201.840022,122.72 197.488,122.72 C196.037326,122.72 194.62934,122.634668 193.264,122.464 C191.89866,122.293332 190.53334,121.994669 189.168,121.568 L190.32,108.256 C191.173338,108.426668 191.983996,108.575999 192.752,108.704 C193.520004,108.832001 194.330662,108.896 195.184,108.896 C197.061343,108.896 198.533328,108.490671 199.6,107.68 C200.666672,106.869329 201.434664,105.824006 201.904,104.544 C202.373336,103.263994 202.650666,101.856008 202.736,100.32 C202.821334,98.7839923 202.864,97.2906739 202.864,95.84 L202.864,30.56 L218.224,30.56 Z M200.688,9.696 C200.688,7.22132096 201.605324,5.06667584 203.44,3.232 C205.274676,1.39732416 207.599986,0.48 210.416,0.48 C213.232014,0.48 215.59999,1.35465792 217.52,3.104 C219.44001,4.85334208 220.4,7.05065344 220.4,9.696 C220.4,12.3413466 219.44001,14.5386579 217.52,16.288 C215.59999,18.0373421 213.232014,18.912 210.416,18.912 C207.599986,18.912 205.274676,17.9946758 203.44,16.16 C201.605324,14.3253242 200.688,12.170679 200.688,9.696 Z M274.288,83.552 L273.904,83.552 C271.685322,87.0506842 268.86935,89.5893254 265.456,91.168 C262.04265,92.7466746 258.28802,93.536 254.192,93.536 C251.375986,93.536 248.624013,93.1520038 245.936,92.384 C243.247987,91.6159962 240.858677,90.4640077 238.768,88.928 C236.677323,87.3919923 234.992006,85.4720115 233.712,83.168 C232.431994,80.8639885 231.792,78.1760154 231.792,75.104 C231.792,71.7759834 232.389327,68.9386784 233.584,66.592 C234.778673,64.2453216 236.378657,62.2826746 238.384,60.704 C240.389343,59.1253254 242.714653,57.8666714 245.36,56.928 C248.005347,55.9893286 250.757319,55.2853357 253.616,54.816 C256.474681,54.3466643 259.354652,54.0480006 262.256,53.92 C265.157348,53.7919994 267.887987,53.728 270.448,53.728 L274.288,53.728 L274.288,52.064 C274.288,48.2239808 272.965347,45.3440096 270.32,43.424 C267.674653,41.5039904 264.30402,40.544 260.208,40.544 C256.965317,40.544 253.936014,41.1199942 251.12,42.272 C248.303986,43.4240058 245.87201,44.9813235 243.824,46.944 L235.76,38.88 C239.17335,35.3813158 243.162644,32.8640077 247.728,31.328 C252.293356,29.7919923 257.007976,29.024 261.872,29.024 C266.224022,29.024 269.893318,29.5146618 272.88,30.496 C275.866682,31.4773382 278.341324,32.7359923 280.304,34.272 C282.266676,35.8080077 283.781328,37.5786566 284.848,39.584 C285.914672,41.5893434 286.682664,43.6159898 287.152,45.664 C287.621336,47.7120102 287.898666,49.6959904 287.984,51.616 C288.069334,53.5360096 288.112,55.2213261 288.112,56.672 L288.112,92 L274.288,92 L274.288,83.552 Z M273.392,64.48 L270.192,64.48 C268.058656,64.48 265.669347,64.5653325 263.024,64.736 C260.378653,64.9066675 257.882678,65.3119968 255.536,65.952 C253.189322,66.5920032 251.205341,67.5306605 249.584,68.768 C247.962659,70.0053395 247.152,71.7333222 247.152,73.952 C247.152,75.4026739 247.471997,76.6186618 248.112,77.6 C248.752003,78.5813382 249.583995,79.4133299 250.608,80.096 C251.632005,80.7786701 252.783994,81.2693318 254.064,81.568 C255.344006,81.8666682 256.623994,82.016 257.904,82.016 C263.194693,82.016 267.098654,80.7573459 269.616,78.24 C272.133346,75.7226541 273.392,72.2880218 273.392,67.936 L273.392,64.48 Z" id="path-1"></path>
        <linearGradient x1="92.3265595%" y1="50%" x2="8.96777342%" y2="50%" id="linearGradient-3">
            <stop stop-color="#5DA708" offset="0%"></stop>
            <stop stop-color="#E9E9E9" stop-opacity="0.840919384" offset="42.1675702%"></stop>
            <stop stop-color="#EDEDED" stop-opacity="0.781816123" offset="61.4835778%"></stop>
            <stop stop-color="#5DA708" offset="100%"></stop>
        </linearGradient>
    </defs>
    <g id="nexp" stroke="none" stroke-width="1" fill="none" fill-rule="evenodd">
        <g id="Desktop" transform="translate(-512.000000, -178.000000)">
            <g id="nexp" transform="translate(512.000000, 178.000000)">
                <text id="experience" font-family="HiraginoSans-W1, Hiragino Sans" font-size="48" font-weight="300" fill="#000000">
                    <tspan x="234" y="124">experience</tspan>
                </text>
                <g id="Rectangle-5">
                    <mask id="mask-2" fill="white">
                        <use xlink:href="#path-1"></use>
                    </mask>
                    <use id="Mask" fill="#000000" xlink:href="#path-1"></use>
                    <rect fill="url(#linearGradient-3)" mask="url(#mask-2)" x="-8" y="-26" width="306" height="174"></rect>
                </g>
            </g>
        </g>
    </g>
</svg>